<svg height="512pt" viewBox="0 0 512 512.0005" width="512pt" xmlns="http://www.w3.org/2000/svg"><path d="m437 150h-45v-75c0-41.355469-33.644531-75-75-75h-242c-41.355469 0-75 33.644531-75 75v150c0 36.21875 25.808594 66.523438 60 73.492188v46.507812c0 5.53125 3.046875 10.613281 7.921875 13.226562 4.867187 2.601563 10.785156 2.328126 15.398437-.746093l36.679688-24.453125v41.972656c0 41.355469 33.644531 75 75 75h147.332031l86.160157 59.351562c4.59375 3.167969 10.558593 3.515626 15.484374.925782 4.933594-2.589844 8.023438-7.703125 8.023438-13.277344v-48.507812c34.191406-6.96875 60-37.273438 60-73.492188v-150c0-41.355469-33.644531-75-75-75zm-362 120c-24.8125 0-45-20.1875-45-45v-150c0-24.8125 20.1875-45 45-45h242c24.8125 0 45 20.1875 45 45v150c0 24.8125-20.1875 45-45 45h-152c-2.960938 0-5.855469.875-8.320312 2.519531l-66.679688 44.453125v-31.972656c0-8.285156-6.714844-15-15-15zm407 105c0 24.8125-20.1875 45-45 45-8.285156 0-15 6.714844-15 15v33.453125l-66.488281-45.804687c-2.503907-1.726563-5.472657-2.648438-8.511719-2.648438h-152c-24.8125 0-45-20.1875-45-45v-61.972656l19.542969-13.027344h147.457031c41.355469 0 75-33.644531 75-75v-45h45c24.8125 0 45 20.1875 45 45zm0 0"/><path d="m105 105h122c8.285156 0 15-6.714844 15-15s-6.714844-15-15-15h-122c-8.285156 0-15 6.714844-15 15s6.714844 15 15 15zm0 0"/><path d="m105 165h122c8.285156 0 15-6.714844 15-15s-6.714844-15-15-15h-122c-8.285156 0-15 6.714844-15 15s6.714844 15 15 15zm0 0"/><path d="m105 225h182c8.285156 0 15-6.714844 15-15s-6.714844-15-15-15h-182c-8.285156 0-15 6.714844-15 15s6.714844 15 15 15zm0 0"/><path d="m302 90c0 8.285156-6.714844 15-15 15s-15-6.714844-15-15 6.714844-15 15-15 15 6.714844 15 15zm0 0"/><path d="m302 150c0 8.285156-6.714844 15-15 15s-15-6.714844-15-15 6.714844-15 15-15 15 6.714844 15 15zm0 0"/><path d="m407 345h-180c-8.285156 0-15 6.714844-15 15s6.714844 15 15 15h180c8.285156 0 15-6.714844 15-15s-6.714844-15-15-15zm0 0"/></svg>