<?xml version="1.0" encoding="iso-8859-1"?>
<!-- Generator: Adobe Illustrator 19.0.0, SVG Export Plug-In . SVG Version: 6.00 Build 0)  -->
<svg version="1.1" id="Capa_1" xmlns="http://www.w3.org/2000/svg" xmlns:xlink="http://www.w3.org/1999/xlink" x="0px" y="0px"
	 viewBox="0 0 512.001 512.001" style="enable-background:new 0 0 512.001 512.001;" xml:space="preserve">
<g>
	<g>
		<path d="M474.051,377.772l-63.652-63.65c-17.591-17.591-46.061-17.592-63.653,0l-28.933,28.933
			c-13.327,13.326-34.894,13.327-48.222,0c-0.006-0.006-0.012-0.012-0.018-0.018l-100.62-100.283
			c-13.326-13.326-13.328-34.894,0-48.222l28.932-28.933c17.591-17.59,17.592-46.061,0-63.653l-63.653-63.653
			c-17.591-17.591-46.061-17.592-63.652,0C70.497,38.376,49.363,59.51,49.363,59.51c-61.906,57.144-68.935,164.458-1.918,231.474
			L221.37,464.572c60.606,60.606,163.07,66.464,231.461-1.926c0,0,0.004-0.004,0.005-0.005l21.215-21.215
			C491.601,423.876,491.601,395.322,474.051,377.772z M91.8,59.512c5.849-5.849,15.367-5.85,21.217,0l63.653,63.653
			c5.863,5.863,5.863,15.353,0,21.217l-10.609,10.609l-84.87-84.87L91.8,59.512z M242.577,443.345L68.653,269.758
			c-48.657-48.657-51.408-126.092-8.274-178.014l84.565,84.565c-22.156,25.115-21.376,63.493,2.81,87.68l100.62,100.283
			c24.046,24.046,62.427,25.053,87.662,2.792l84.571,84.571C368.895,494.686,291.611,492.378,242.577,443.345z M452.835,420.209
			l-10.609,10.609l-84.87-84.87l10.608-10.608c5.864-5.864,15.353-5.864,21.218,0l63.653,63.652
			C458.685,404.841,458.685,414.36,452.835,420.209z"/>
	</g>
</g>
<g>
	<g>
		<path d="M466.992,0.007H286.955c-24.818,0-45.009,20.191-45.009,45.009v120.024c0,24.818,20.191,45.009,45.009,45.009h15.003
			v45.009c0,13.327,16.193,20.027,25.611,10.609l55.618-55.618h83.804c24.818,0,45.009-20.191,45.009-45.009V45.017
			C512.001,20.199,491.81,0.007,466.992,0.007z M481.995,165.041c0,8.273-6.73,15.003-15.003,15.003h-90.018
			c-3.979,0-7.795,1.58-10.608,4.394l-34.401,34.401v-23.792c0-8.286-6.717-15.003-15.003-15.003h-30.006
			c-8.273,0-15.003-6.73-15.003-15.003V45.017c0-8.273,6.73-15.003,15.003-15.003h180.037c8.273,0,15.003,6.73,15.003,15.003
			V165.041z"/>
	</g>
</g>
<g>
	<g>
		<path d="M436.986,60.02H316.962c-8.286,0-15.003,6.717-15.003,15.003c0,8.286,6.717,15.003,15.003,15.003h120.024
			c8.286,0,15.003-6.717,15.003-15.003C451.989,66.737,445.272,60.02,436.986,60.02z"/>
	</g>
</g>
<g>
	<g>
		<path d="M376.974,120.032h-60.012c-8.286,0-15.003,6.717-15.003,15.003c0,8.286,6.717,15.003,15.003,15.003h60.012
			c8.286,0,15.003-6.717,15.003-15.003C391.977,126.749,385.259,120.032,376.974,120.032z"/>
	</g>
</g>
<g>
</g>
<g>
</g>
<g>
</g>
<g>
</g>
<g>
</g>
<g>
</g>
<g>
</g>
<g>
</g>
<g>
</g>
<g>
</g>
<g>
</g>
<g>
</g>
<g>
</g>
<g>
</g>
<g>
</g>
</svg>
