<?xml version="1.0" encoding="iso-8859-1"?>
<!-- Generator: Adobe Illustrator 19.0.0, SVG Export Plug-In . SVG Version: 6.00 Build 0)  -->
<svg version="1.1" id="Capa_1" xmlns="http://www.w3.org/2000/svg" xmlns:xlink="http://www.w3.org/1999/xlink" x="0px" y="0px"
	 viewBox="0 0 511.999 511.999" style="enable-background:new 0 0 511.999 511.999;" xml:space="preserve">
<g>
	<g>
		<path d="M290.334,99.441c-52.682-52.683-138.214-52.683-190.896,0c-25.458,25.458-39.479,59.356-39.479,95.448
			c0,36.092,14.02,69.99,39.479,95.448c52.683,52.683,138.214,52.683,190.896,0C343.015,237.658,343.018,152.124,290.334,99.441z
			 M269.124,269.128c-40.96,40.96-107.516,40.958-148.476,0c-40.934-40.935-40.934-107.54,0-148.476
			c40.96-40.959,107.516-40.958,148.476,0C310.058,161.587,310.058,228.193,269.124,269.128z"/>
	</g>
</g>
<g>
	<g>
		<path d="M500.884,437.254l-86.315-86.315c-11.903-11.903-31.196-14.823-48.363-5.942l-23.248-23.248
			c65.652-76.518,62.252-192.277-10.202-264.73c-76.02-76.022-199.718-76.022-275.739,0c-76.022,76.021-76.022,199.718,0,275.739
			c38.01,38.012,87.94,57.016,137.87,57.016c45.243,0,90.485-15.605,126.86-46.815l23.248,23.248
			c-8.905,17.213-5.926,36.496,5.941,48.363l86.315,86.315c15.528,15.529,42.556,15.017,60.601-3.03
			c8.195-8.195,13.175-18.771,14.022-29.778C512.776,456.376,508.77,445.14,500.884,437.254z M311.546,311.549
			c-64.326,64.326-168.992,64.326-233.319,0c-64.325-64.325-64.325-168.992,0-233.319c64.326-64.324,168.99-64.328,233.319,0
			C375.871,142.556,375.871,247.223,311.546,311.549z M476.641,476.647c-5.895,5.896-14.24,6.968-18.18,3.03l-86.315-86.315
			c-4.105-4.106-2.718-12.432,3.031-18.181h0.001c6.873-6.875,14.95-6.259,18.18-3.03l86.315,86.315
			C483.78,462.571,482.391,470.896,476.641,476.647z"/>
	</g>
</g>
<g>
</g>
<g>
</g>
<g>
</g>
<g>
</g>
<g>
</g>
<g>
</g>
<g>
</g>
<g>
</g>
<g>
</g>
<g>
</g>
<g>
</g>
<g>
</g>
<g>
</g>
<g>
</g>
<g>
</g>
</svg>
